<?xml version="1.0" standalone="no"?>
<!DOCTYPE svg PUBLIC "-//W3C//DTD SVG 20010904//EN"
 "http://www.w3.org/TR/2001/REC-SVG-20010904/DTD/svg10.dtd">
<svg version="1.0" xmlns="http://www.w3.org/2000/svg"
 width="2083.000000pt" height="2083.000000pt" viewBox="0 0 2083.000000 2083.000000"
 preserveAspectRatio="xMidYMid meet">
<metadata>
Created by potrace 1.11, written by Peter Selinger 2001-2013
</metadata>
<g transform="translate(0.000000,2083.000000) scale(0.100000,-0.100000)"
fill="#000000" stroke="none">
<path d="M10050 16653 c-1106 -76 -2063 -384 -2978 -959 -380 -239 -730 -520
-1073 -863 -343 -343 -624 -693 -863 -1073 -534 -850 -832 -1721 -942 -2748
-21 -199 -30 -767 -15 -990 90 -1354 583 -2585 1454 -3630 147 -176 555 -587
727 -732 416 -350 796 -601 1260 -833 1119 -560 2342 -767 3595 -610 2323 293
4303 1889 5092 4105 410 1155 471 2420 172 3615 -208 833 -599 1637 -1124
2310 -236 302 -639 722 -915 952 -1038 865 -2270 1361 -3610 1453 -130 9 -667
11 -780 3z"/>
</g>
</svg>
